<svg width="834" height="315" viewBox="0 0 834 315" fill="none" xmlns="http://www.w3.org/2000/svg">
<path fill-rule="evenodd" clip-rule="evenodd" d="M0.0626406 88.5C15.7296 88.5 31.3956 88.5 47.0626 88.5C46.8956 117.502 47.0626 146.502 47.5626 175.5C50.4506 183.031 55.9506 186.697 64.0626 186.5C72.9326 187.317 79.0986 183.651 82.5626 175.5C83.0626 146.502 83.2296 117.502 83.0626 88.5C99.0626 88.5 115.063 88.5 131.063 88.5C131.23 120.168 131.063 151.835 130.563 183.5C127.925 202.476 118.425 216.976 102.063 227C90.6136 232.897 81.8551 236 66.0626 236C35.0626 236 16.0676 224.424 3.56264 198.5C2.14964 194.261 1.14964 189.928 0.562641 185.5C0.0626406 153.168 -0.104359 120.835 0.0626406 88.5Z" fill="#C9409E"/>
<path d="M495.563 231.5H451.563V88H572.563L525.063 133.5H495.563V231.5Z" fill="#F4DC08"/>
<path fill-rule="evenodd" clip-rule="evenodd" d="M752.062 100.5C752.062 144.5 752.062 188.5 752.062 232.5C736.062 232.5 720.062 232.5 704.062 232.5C704.062 193.833 704.062 155.167 704.062 116.5C709.294 112.056 714.295 107.39 719.062 102.5C719.851 102.217 720.518 101.717 721.062 101C731.39 100.5 741.723 100.334 752.062 100.5Z" fill="#C9409E"/>
<path fill-rule="evenodd" clip-rule="evenodd" d="M820.562 37C820.562 103 820.562 169 820.562 235C805.233 235 789.892 235 774.562 235C774.562 169 774.562 103 774.562 37C789.892 37 805.233 37 820.562 37Z" fill="#C9409E"/>
<path d="M461.014 265.486V268H453.14V265.486H461.014ZM454.182 252.359V268H450.959V252.359H454.182ZM476.357 265.486V268H468.031V265.486H476.357ZM469.084 252.359V268H465.861V252.359H469.084ZM475.272 258.729V261.179H468.031V258.729H475.272ZM476.346 252.359V254.884H468.031V252.359H476.346ZM487.596 255.034L483.342 268H479.915L485.727 252.359H487.907L487.596 255.034ZM491.13 268L486.865 255.034L486.522 252.359H488.724L494.568 268H491.13ZM490.937 262.178V264.702H482.676V262.178H490.937ZM499.018 252.359H504.851C506.047 252.359 507.074 252.538 507.934 252.896C508.8 253.255 509.466 253.785 509.932 254.486C510.397 255.188 510.63 256.051 510.63 257.075C510.63 257.913 510.487 258.633 510.2 259.234C509.921 259.829 509.524 260.326 509.008 260.728C508.499 261.121 507.901 261.437 507.214 261.673L506.193 262.21H501.123L501.102 259.696H504.872C505.438 259.696 505.907 259.596 506.279 259.396C506.652 259.195 506.931 258.916 507.117 258.558C507.311 258.2 507.407 257.784 507.407 257.312C507.407 256.81 507.314 256.377 507.128 256.012C506.942 255.646 506.659 255.367 506.279 255.174C505.9 254.98 505.424 254.884 504.851 254.884H502.24V268H499.018V252.359ZM507.762 268L504.195 261.028L507.601 261.007L511.21 267.85V268H507.762ZM528.841 252.359V268H525.618L519.334 257.516V268H516.111V252.359H519.334L525.629 262.854V252.359H528.841ZM538.071 252.359V268H534.859V252.359H538.071ZM556.819 252.359V268H553.597L547.313 257.516V268H544.09V252.359H547.313L553.608 262.854V252.359H556.819ZM575.02 259.825V266.023C574.776 266.317 574.4 266.636 573.892 266.979C573.383 267.316 572.728 267.606 571.926 267.85C571.124 268.093 570.153 268.215 569.015 268.215C568.005 268.215 567.085 268.05 566.254 267.721C565.423 267.384 564.707 266.894 564.106 266.249C563.511 265.604 563.053 264.817 562.731 263.886C562.408 262.948 562.247 261.877 562.247 260.674V259.696C562.247 258.493 562.401 257.423 562.709 256.484C563.024 255.546 563.472 254.755 564.052 254.11C564.632 253.466 565.323 252.975 566.125 252.639C566.927 252.302 567.819 252.134 568.8 252.134C570.161 252.134 571.278 252.356 572.151 252.8C573.025 253.237 573.691 253.845 574.15 254.626C574.615 255.399 574.901 256.287 575.009 257.29H571.883C571.804 256.76 571.654 256.298 571.432 255.904C571.21 255.51 570.891 255.202 570.476 254.98C570.068 254.758 569.538 254.647 568.886 254.647C568.349 254.647 567.869 254.758 567.446 254.98C567.031 255.195 566.68 255.514 566.394 255.937C566.107 256.359 565.889 256.882 565.738 257.505C565.588 258.128 565.513 258.851 565.513 259.675V260.674C565.513 261.49 565.592 262.214 565.749 262.844C565.907 263.467 566.139 263.993 566.447 264.423C566.762 264.845 567.149 265.164 567.608 265.379C568.066 265.594 568.599 265.701 569.208 265.701C569.717 265.701 570.139 265.658 570.476 265.572C570.819 265.486 571.095 265.382 571.303 265.261C571.518 265.132 571.682 265.01 571.797 264.896V262.124H568.854V259.825H575.02ZM591.364 259.632L594.372 257.688C594.816 257.394 595.113 257.111 595.264 256.839C595.414 256.567 595.489 256.262 595.489 255.926C595.489 255.589 595.364 255.278 595.113 254.991C594.863 254.698 594.512 254.551 594.061 254.551C593.738 254.551 593.466 254.626 593.244 254.776C593.022 254.92 592.854 255.113 592.739 255.356C592.632 255.6 592.578 255.872 592.578 256.173C592.578 256.495 592.664 256.825 592.836 257.161C593.008 257.491 593.241 257.841 593.534 258.214C593.828 258.579 594.154 258.977 594.512 259.406L601.892 268H598.379L592.363 261.039C591.855 260.409 591.411 259.832 591.031 259.31C590.652 258.78 590.355 258.264 590.14 257.763C589.925 257.261 589.818 256.746 589.818 256.216C589.818 255.399 589.993 254.687 590.344 254.078C590.695 253.462 591.189 252.986 591.826 252.649C592.464 252.306 593.212 252.134 594.071 252.134C594.881 252.134 595.582 252.302 596.177 252.639C596.771 252.968 597.23 253.405 597.552 253.949C597.881 254.493 598.046 255.091 598.046 255.743C598.046 256.23 597.957 256.681 597.777 257.097C597.598 257.505 597.351 257.884 597.036 258.235C596.721 258.579 596.359 258.898 595.951 259.191L592.525 261.63C592.26 261.873 592.059 262.113 591.923 262.35C591.787 262.586 591.694 262.812 591.644 263.026C591.594 263.234 591.568 263.435 591.568 263.628C591.568 264.043 591.658 264.416 591.837 264.745C592.016 265.075 592.267 265.332 592.589 265.519C592.911 265.705 593.287 265.798 593.717 265.798C594.304 265.798 594.873 265.669 595.425 265.411C595.976 265.153 596.47 264.785 596.907 264.305C597.344 263.818 597.692 263.241 597.949 262.575C598.207 261.909 598.336 261.175 598.336 260.373H600.957C600.957 261.175 600.878 261.938 600.721 262.661C600.563 263.377 600.309 264.043 599.958 264.659C599.607 265.268 599.142 265.809 598.562 266.281C598.519 266.317 598.458 266.371 598.379 266.442C598.307 266.507 598.247 266.557 598.196 266.593C597.509 267.144 596.793 267.556 596.048 267.828C595.303 268.093 594.472 268.226 593.556 268.226C592.51 268.226 591.604 268.036 590.838 267.656C590.079 267.277 589.492 266.754 589.076 266.088C588.668 265.422 588.464 264.659 588.464 263.8C588.464 263.17 588.586 262.622 588.829 262.156C589.08 261.684 589.424 261.247 589.86 260.846C590.297 260.445 590.799 260.04 591.364 259.632ZM624.123 262.812H627.335C627.271 263.864 626.981 264.799 626.465 265.615C625.957 266.432 625.244 267.069 624.327 267.527C623.418 267.986 622.322 268.215 621.04 268.215C620.038 268.215 619.139 268.043 618.344 267.699C617.549 267.348 616.869 266.847 616.303 266.195C615.744 265.544 615.318 264.756 615.025 263.832C614.731 262.908 614.584 261.873 614.584 260.728V259.643C614.584 258.497 614.734 257.462 615.035 256.538C615.343 255.607 615.78 254.816 616.346 254.164C616.919 253.512 617.603 253.011 618.398 252.66C619.193 252.309 620.081 252.134 621.062 252.134C622.365 252.134 623.464 252.37 624.359 252.843C625.262 253.315 625.96 253.967 626.454 254.798C626.956 255.629 627.256 256.574 627.357 257.634H624.134C624.098 257.004 623.973 256.47 623.758 256.033C623.543 255.589 623.217 255.256 622.78 255.034C622.351 254.805 621.778 254.69 621.062 254.69C620.525 254.69 620.055 254.791 619.654 254.991C619.253 255.192 618.917 255.496 618.645 255.904C618.373 256.312 618.168 256.828 618.032 257.451C617.903 258.067 617.839 258.79 617.839 259.621V260.728C617.839 261.537 617.9 262.249 618.022 262.865C618.143 263.474 618.33 263.99 618.58 264.412C618.838 264.827 619.167 265.143 619.568 265.357C619.977 265.565 620.467 265.669 621.04 265.669C621.713 265.669 622.268 265.562 622.705 265.347C623.142 265.132 623.475 264.813 623.704 264.391C623.941 263.968 624.08 263.442 624.123 262.812ZM638.811 255.034L634.557 268H631.13L636.942 252.359H639.122L638.811 255.034ZM642.345 268L638.08 255.034L637.736 252.359H639.939L645.782 268H642.345ZM642.151 262.178V264.702H633.891V262.178H642.151ZM650.233 252.359H656.066C657.262 252.359 658.289 252.538 659.149 252.896C660.015 253.255 660.681 253.785 661.147 254.486C661.612 255.188 661.845 256.051 661.845 257.075C661.845 257.913 661.702 258.633 661.415 259.234C661.136 259.829 660.738 260.326 660.223 260.728C659.714 261.121 659.116 261.437 658.429 261.673L657.408 262.21H652.338L652.317 259.696H656.087C656.653 259.696 657.122 259.596 657.494 259.396C657.867 259.195 658.146 258.916 658.332 258.558C658.526 258.2 658.622 257.784 658.622 257.312C658.622 256.81 658.529 256.377 658.343 256.012C658.157 255.646 657.874 255.367 657.494 255.174C657.115 254.98 656.638 254.884 656.066 254.884H653.455V268H650.233V252.359ZM658.977 268L655.41 261.028L658.816 261.007L662.425 267.85V268H658.977ZM677.821 265.486V268H669.496V265.486H677.821ZM670.549 252.359V268H667.326V252.359H670.549ZM676.736 258.729V261.179H669.496V258.729H676.736ZM677.811 252.359V254.884H669.496V252.359H677.811ZM693.196 265.486V268H684.871V265.486H693.196ZM685.924 252.359V268H682.701V252.359H685.924ZM692.111 258.729V261.179H684.871V258.729H692.111ZM693.186 252.359V254.884H684.871V252.359H693.186ZM698.076 252.359H703.909C705.105 252.359 706.133 252.538 706.992 252.896C707.859 253.255 708.525 253.785 708.99 254.486C709.456 255.188 709.689 256.051 709.689 257.075C709.689 257.913 709.545 258.633 709.259 259.234C708.98 259.829 708.582 260.326 708.067 260.728C707.558 261.121 706.96 261.437 706.273 261.673L705.252 262.21H700.182L700.16 259.696H703.931C704.497 259.696 704.966 259.596 705.338 259.396C705.71 259.195 705.99 258.916 706.176 258.558C706.369 258.2 706.466 257.784 706.466 257.312C706.466 256.81 706.373 256.377 706.187 256.012C706 255.646 705.718 255.367 705.338 255.174C704.958 254.98 704.482 254.884 703.909 254.884H701.299V268H698.076V252.359ZM706.82 268L703.254 261.028L706.659 261.007L710.269 267.85V268H706.82ZM736.045 259.825V266.023C735.802 266.317 735.426 266.636 734.917 266.979C734.409 267.316 733.753 267.606 732.951 267.85C732.149 268.093 731.179 268.215 730.04 268.215C729.03 268.215 728.11 268.05 727.279 267.721C726.449 267.384 725.733 266.894 725.131 266.249C724.537 265.604 724.078 264.817 723.756 263.886C723.434 262.948 723.273 261.877 723.273 260.674V259.696C723.273 258.493 723.427 257.423 723.734 256.484C724.05 255.546 724.497 254.755 725.077 254.11C725.657 253.466 726.348 252.975 727.151 252.639C727.953 252.302 728.844 252.134 729.825 252.134C731.186 252.134 732.303 252.356 733.177 252.8C734.051 253.237 734.717 253.845 735.175 254.626C735.64 255.399 735.927 256.287 736.034 257.29H732.908C732.83 256.76 732.679 256.298 732.457 255.904C732.235 255.51 731.916 255.202 731.501 254.98C731.093 254.758 730.563 254.647 729.911 254.647C729.374 254.647 728.894 254.758 728.472 254.98C728.056 255.195 727.706 255.514 727.419 255.937C727.133 256.359 726.914 256.882 726.764 257.505C726.613 258.128 726.538 258.851 726.538 259.675V260.674C726.538 261.49 726.617 262.214 726.775 262.844C726.932 263.467 727.165 263.993 727.473 264.423C727.788 264.845 728.175 265.164 728.633 265.379C729.091 265.594 729.625 265.701 730.234 265.701C730.742 265.701 731.165 265.658 731.501 265.572C731.845 265.486 732.121 265.382 732.328 265.261C732.543 265.132 732.708 265.01 732.822 264.896V262.124H729.879V259.825H736.045ZM741.645 252.359H747.478C748.674 252.359 749.701 252.538 750.561 252.896C751.427 253.255 752.093 253.785 752.559 254.486C753.024 255.188 753.257 256.051 753.257 257.075C753.257 257.913 753.114 258.633 752.827 259.234C752.548 259.829 752.151 260.326 751.635 260.728C751.126 261.121 750.528 261.437 749.841 261.673L748.82 262.21H743.75L743.729 259.696H747.499C748.065 259.696 748.534 259.596 748.906 259.396C749.279 259.195 749.558 258.916 749.744 258.558C749.938 258.2 750.034 257.784 750.034 257.312C750.034 256.81 749.941 256.377 749.755 256.012C749.569 255.646 749.286 255.367 748.906 255.174C748.527 254.98 748.051 254.884 747.478 254.884H744.867V268H741.645V252.359ZM750.389 268L746.822 261.028L750.228 261.007L753.837 267.85V268H750.389ZM771.586 259.814V260.556C771.586 261.744 771.425 262.812 771.103 263.757C770.78 264.702 770.326 265.508 769.738 266.174C769.151 266.833 768.449 267.338 767.633 267.688C766.824 268.039 765.925 268.215 764.937 268.215C763.956 268.215 763.057 268.039 762.24 267.688C761.431 267.338 760.729 266.833 760.135 266.174C759.54 265.508 759.079 264.702 758.749 263.757C758.427 262.812 758.266 261.744 758.266 260.556V259.814C758.266 258.618 758.427 257.551 758.749 256.613C759.071 255.668 759.526 254.862 760.113 254.196C760.708 253.53 761.41 253.022 762.219 252.671C763.035 252.32 763.934 252.145 764.915 252.145C765.903 252.145 766.802 252.32 767.611 252.671C768.428 253.022 769.13 253.53 769.717 254.196C770.311 254.862 770.77 255.668 771.092 256.613C771.421 257.551 771.586 258.618 771.586 259.814ZM768.331 260.556V259.793C768.331 258.962 768.256 258.232 768.106 257.602C767.955 256.971 767.733 256.441 767.44 256.012C767.146 255.582 766.788 255.26 766.365 255.045C765.943 254.823 765.459 254.712 764.915 254.712C764.371 254.712 763.887 254.823 763.465 255.045C763.05 255.26 762.695 255.582 762.401 256.012C762.115 256.441 761.897 256.971 761.746 257.602C761.596 258.232 761.521 258.962 761.521 259.793V260.556C761.521 261.379 761.596 262.11 761.746 262.747C761.897 263.377 762.119 263.911 762.412 264.348C762.706 264.777 763.064 265.103 763.486 265.325C763.909 265.547 764.392 265.658 764.937 265.658C765.481 265.658 765.964 265.547 766.387 265.325C766.809 265.103 767.164 264.777 767.45 264.348C767.737 263.911 767.955 263.377 768.106 262.747C768.256 262.11 768.331 261.379 768.331 260.556ZM780.677 265.519L783.792 252.359H785.532L785.93 254.551L782.61 268H780.741L780.677 265.519ZM779.076 252.359L781.654 265.519L781.44 268H779.356L775.886 252.359H779.076ZM788.669 265.465L791.215 252.359H794.405L790.946 268H788.862L788.669 265.465ZM786.51 252.359L789.647 265.572L789.561 268H787.692L784.351 254.54L784.78 252.359H786.51ZM806.3 252.359V268H803.088V252.359H806.3ZM811.112 252.359V254.884H798.351V252.359H811.112ZM826.38 258.729V261.243H818.216V258.729H826.38ZM819.172 252.359V268H815.949V252.359H819.172ZM828.679 252.359V268H825.467V252.359H828.679Z" fill="black"/>
<path d="M218.5 218.235L195.5 194.735L194 192.735L193.5 268.235L146 314.235V94.2349L168.5 73.2349L216.5 121.235C214.1 121.235 200.167 137.568 193.5 145.735L218.5 167.735C267.5 176.235 254 113.235 223.5 119.235L190.5 82.7349C244.1 55.9349 277.5 85.5682 287.5 103.735C328.5 175.235 263.5 226.235 218.5 218.235Z" fill="#C9409E"/>
<path d="M379.942 75H335.942H334.442V127.5H315.442C315.108 143.667 314.642 175.8 315.442 175C316.242 174.2 328.442 175.333 334.442 176V219.5C334.442 243.9 359.775 264.667 372.442 272L439.442 271L381.942 218L381.442 176H407.442V127.5H379.942V75Z" fill="#C9409E"/>
<path d="M583 231.5H536L536.5 148.5L613 78L690.5 148.5V231.5H608.5L583 207.5V231.5Z" fill="#C9409E" stroke="#C9409E"/>
<path d="M585 179.5V165.5L614 138L644 165.5V179.5H585Z" fill="white"/>
<circle cx="727.5" cy="59.5" r="23.5" fill="#C9409E"/>
<path d="M449 173L428 152.5V0L524.5 85.5H449V173Z" fill="#665E5E"/>
</svg>
