<svg width="822" height="431" viewBox="0 0 822 431" fill="none" xmlns="http://www.w3.org/2000/svg">
<path fill-rule="evenodd" clip-rule="evenodd" d="M155.16 120.844C179.989 120.365 204.779 120.935 229.529 122.554C255.223 130.496 268.745 147.981 270.093 175.01C269.04 210.477 251.011 229.292 216.007 231.457C205.491 231.457 194.973 231.457 184.457 231.457C183.334 249.882 182.958 268.507 183.33 287.333C173.94 287.333 164.55 287.333 155.16 287.333C155.16 231.836 155.16 176.341 155.16 120.844Z" fill="#229BCE"/>
<path fill-rule="evenodd" clip-rule="evenodd" d="M214.881 149.353C234.06 151.856 242.511 162.879 240.234 182.422C236.747 194.889 228.672 201.731 216.007 202.948C205.866 202.948 195.725 202.948 185.584 202.948C185.584 185.083 185.584 167.218 185.584 149.353C195.35 149.353 205.115 149.353 214.881 149.353Z" fill="#153234"/>
<path fill-rule="evenodd" clip-rule="evenodd" d="M503.408 144.615C505.502 147.98 507.61 151.376 509.729 154.804C519.003 185.189 509.999 208.587 482.72 224.996C496.613 245.468 510.022 266.224 522.947 287.262C510.681 287.451 498.421 287.262 486.168 286.696C473.956 267.734 461.888 248.676 449.964 229.524C442.981 228.419 435.894 228.041 428.701 228.392C428.701 235.562 428.701 242.733 428.701 249.902C417.975 249.902 407.247 249.902 396.52 249.902C396.52 206.882 396.52 163.861 396.52 120.84C420.697 120.369 444.833 120.936 468.928 122.539C482.974 126.235 494.467 133.594 503.408 144.615Z" fill="#F9FAF9"/>
<path fill-rule="evenodd" clip-rule="evenodd" d="M451.688 149.576C473.507 154.897 480.977 168.306 474.1 189.803C469.599 196.587 463.278 200.61 455.136 201.871C444.416 202.445 433.688 202.636 422.955 202.445C422.955 184.823 422.955 167.199 422.955 149.576C432.532 149.576 442.11 149.576 451.688 149.576Z" fill="#153234"/>
<path fill-rule="evenodd" clip-rule="evenodd" d="M29.8911 120.68C29.6992 155.545 29.8911 190.408 30.4658 225.269C35.6918 255.785 53.5065 268.237 83.9098 262.623C96.5559 258.403 104.41 249.783 107.471 236.763C108.384 233.348 109.15 229.9 109.77 226.419C110.344 191.174 110.536 155.928 110.344 120.68C120.688 120.68 131.032 120.68 141.376 120.68C141.376 156.309 141.376 191.939 141.376 227.568C136.63 270.434 112.686 292.271 69.5431 293.08C34.4091 292.441 11.8052 275.201 1.73243 241.36C0.496899 236.452 -0.0777674 231.472 0.00843261 226.419C0.00843261 191.172 0.00843261 155.927 0.00843261 120.68C9.9697 120.68 19.9298 120.68 29.8911 120.68Z" fill="#FAFBFA"/>
<path d="M379.28 123.553H272.967V152.287H313.193V287.333H341.927V152.287H379.28V123.553Z" fill="#FAFBFA"/>
<path d="M597.653 252.853V229.867H623.513L632.133 252.853H597.653Z" fill="#FFE500"/>
<path d="M560.3 287.333H528.693L603.4 114.933L678.107 287.333H646.5L603.4 186.271L560.3 287.333Z" fill="#FAFBFA"/>
<path d="M712.587 126.427H683.853V287.333H712.587V126.427Z" fill="#FAFBFA"/>
<path d="M752.813 126.427H724.08L726.871 287.333H821.773V267.573H754.784L752.813 126.427Z" fill="#FAFBFA"/>
<path d="M522.947 172.4C522.947 151.712 499.96 126.427 482.72 117.807L597.653 0L709.713 103.44H675.233L600.527 37.3533L522.947 123.553V172.4Z" fill="#6FB844"/>
<path d="M504.557 327.56L476.973 304.573H821.773V327.56H504.557Z" fill="#FFE500"/>
<path d="M384.358 431H327.56L471.227 304.573V351.616L384.358 431Z" fill="#229BCE"/>
<path d="M275.154 431H224.12L398.235 258.6H425.253V285.352L275.154 431Z" fill="#FFE500"/>
</svg>
