<svg width="821" height="318" viewBox="0 0 821 318" fill="none" xmlns="http://www.w3.org/2000/svg">
<path fill-rule="evenodd" clip-rule="evenodd" d="M0.0626406 91.5C15.7296 91.5 31.3956 91.5 47.0626 91.5C46.8956 120.502 47.0626 149.502 47.5626 178.5C50.4506 186.031 55.9506 189.697 64.0626 189.5C72.9326 190.317 79.0986 186.651 82.5626 178.5C83.0626 149.502 83.2296 120.502 83.0626 91.5C99.0626 91.5 115.063 91.5 131.063 91.5C131.23 123.168 131.063 154.835 130.563 186.5C127.925 205.476 118.425 219.976 102.063 230C90.6136 235.897 81.8551 239 66.0626 239C35.0626 239 16.0676 227.424 3.56264 201.5C2.14964 197.261 1.14964 192.928 0.562641 188.5C0.0626406 156.168 -0.104359 123.835 0.0626406 91.5Z" fill="#00BA77"/>
<path d="M495.562 234.5H451.562V91H572.562L525.062 136.5H495.562V234.5Z" fill="#229BCE"/>
<path fill-rule="evenodd" clip-rule="evenodd" d="M752.062 103.5C752.062 147.5 752.062 191.5 752.062 235.5C736.062 235.5 720.062 235.5 704.062 235.5C704.062 196.833 704.062 158.167 704.062 119.5C709.294 115.056 714.294 110.39 719.062 105.5C719.851 105.217 720.518 104.717 721.062 104C731.391 103.5 741.724 103.334 752.062 103.5Z" fill="#00BA77"/>
<path fill-rule="evenodd" clip-rule="evenodd" d="M820.562 40C820.562 106 820.562 172 820.562 238C805.233 238 789.892 238 774.562 238C774.562 172 774.562 106 774.562 40C789.892 40 805.233 40 820.562 40Z" fill="#00BA77"/>
<path d="M218.5 221.235L195.5 197.735L194 195.735L193.5 271.235L146 317.235V97.2349L168.5 76.2349L216.5 124.235C214.1 124.235 200.167 140.568 193.5 148.735L218.5 170.735C267.5 179.235 254 116.235 223.5 122.235L190.5 85.7349C244.1 58.9349 277.5 88.5682 287.5 106.735C328.5 178.235 263.5 229.235 218.5 221.235Z" fill="#00BA77"/>
<path d="M379.942 78H335.942H334.442V130.5H315.442C315.108 146.667 314.642 178.8 315.442 178C316.242 177.2 328.442 178.333 334.442 179V222.5C334.442 246.9 359.775 267.667 372.442 275L439.442 274L381.942 221L381.442 179H407.442V130.5H379.942V78Z" fill="#00BA77"/>
<path d="M583 234.5H536L536.5 151.5L613 81L690.5 151.5V234.5H608.5L583 210.5V234.5Z" fill="#00BA77" stroke="#00BA77"/>
<path d="M585 182.5V168.5L614 141L644 168.5V182.5H585Z" fill="#153234"/>
<circle cx="727.5" cy="62.5" r="23.5" fill="#00BA77"/>
<path d="M448 173L427 152.5V0L523.5 85.5H448V173Z" fill="#FFE500"/>
</svg>
